<?xml version="1.0" encoding="UTF-8" standalone="no"?>
<!-- Created with Inkscape (http://www.inkscape.org/) -->

<svg
   xmlns:dc="http://purl.org/dc/elements/1.1/"
   xmlns:cc="http://creativecommons.org/ns#"
   xmlns:rdf="http://www.w3.org/1999/02/22-rdf-syntax-ns#"
   xmlns:svg="http://www.w3.org/2000/svg"
   xmlns="http://www.w3.org/2000/svg"
   xmlns:sodipodi="http://sodipodi.sourceforge.net/DTD/sodipodi-0.dtd"
   xmlns:inkscape="http://www.inkscape.org/namespaces/inkscape"
   width="300"
   height="300"
   id="svg2"
   version="1.1"
   inkscape:version="0.48.5 r10040"
   sodipodi:docname="New document 1">
  <defs
     id="defs4">
    <clipPath
       id="clipPath3001"
       clipPathUnits="userSpaceOnUse">
      <path
         id="path3003"
         d="m 0,0 1062.99,0 0,850 L 0,850 0,0 z"
         inkscape:connector-curvature="0" />
    </clipPath>
  </defs>
  <sodipodi:namedview
     id="base"
     pagecolor="#ffffff"
     bordercolor="#666666"
     borderopacity="1.0"
     inkscape:pageopacity="0.0"
     inkscape:pageshadow="2"
     inkscape:zoom="1.4142136"
     inkscape:cx="236.84475"
     inkscape:cy="110.29071"
     inkscape:document-units="px"
     inkscape:current-layer="g2997"
     showgrid="false"
     inkscape:window-width="1280"
     inkscape:window-height="1005"
     inkscape:window-x="-4"
     inkscape:window-y="-4"
     inkscape:window-maximized="1" />
  <metadata
     id="metadata7">
    <rdf:RDF>
      <cc:Work
         rdf:about="">
        <dc:format>image/svg+xml</dc:format>
        <dc:type
           rdf:resource="http://purl.org/dc/dcmitype/StillImage" />
        <dc:title></dc:title>
      </cc:Work>
    </rdf:RDF>
  </metadata>
  <g
     inkscape:label="Layer 1"
     inkscape:groupmode="layer"
     id="layer1"
     transform="translate(0,-752.36218)">
    <g
       transform="matrix(1.25,0,0,-1.25,261.16055,155.94834)"
       inkscape:label="ink_ext_XXXXXX"
       id="g2993">
      <g
         transform="scale(0.1,0.1)"
         id="g2995">
        <g
           id="g2997">
          <path
             inkscape:connector-curvature="0"
             d="m -1546.6053,-6389.5443 0,267.8937 54.2898,0 0,-270.2729 c 0,-56.6705 19.458,-73.153 59.0189,-73.153 39.539,0 58.9979,16.4825 58.9979,73.153 l 0,270.2729 54.2945,0 0,-267.8937 c 0,-87.3432 -36.589,-122.7718 -113.2924,-122.7718 -77.9333,0 -113.3087,34.241 -113.3087,122.7718"
             style="fill:#1e64c8;fill-opacity:1;fill-rule:nonzero;stroke:none"
             id="path3029"
             inkscape:export-filename="C:\Users\lusterck\Documents\UGentNLP_website\img\nlp_logo.png"
             inkscape:export-xdpi="120"
             inkscape:export-ydpi="120" />
          <path
             inkscape:connector-curvature="0"
             d="m -1260.6879,-6313.4641 c 0,151.0651 40.118,198.9 139.8506,198.9 28.3283,0 58.4229,-7.6783 71.3865,-15.378 l 0,-50.1271 c -14.1382,8.239 -41.2924,17.126 -67.2584,17.126 -63.7217,0 -87.9219,-23.6166 -87.9219,-150.5209 0,-125.6634 17.131,-151.6124 72.5784,-151.6124 17.1316,0 31.2697,2.3273 41.8888,5.3026 l 0,128.0394 -56.6527,0 0,46.0204 110.9429,0 0,-207.1125 c -11.215,-7.0867 -56.0391,-19.4895 -95.5828,-19.4895 -103.8603,0 -129.2314,54.2912 -129.2314,198.852"
             style="fill:#1e64c8;fill-opacity:1;fill-rule:nonzero;stroke:none"
             id="path3051"
             inkscape:export-filename="C:\Users\lusterck\Documents\UGentNLP_website\img\nlp_logo.png"
             inkscape:export-xdpi="120"
             inkscape:export-ydpi="120" />
          <path
             inkscape:connector-curvature="0"
             d="m -971.07783,-6128.7371 179.3932,0 0,-46.047 -125.1029,0 0,-117.4245 100.9244,0 0,-45.4206 -100.9244,0 0,-128.6697 125.1029,0 0,-46.0172 -179.3932,0 0,383.579"
             style="fill:#1e64c8;fill-opacity:1;fill-rule:nonzero;stroke:none"
             id="path3053"
             inkscape:export-filename="C:\Users\lusterck\Documents\UGentNLP_website\img\nlp_logo.png"
             inkscape:export-xdpi="120"
             inkscape:export-ydpi="120" />
          <path
             inkscape:connector-curvature="0"
             d="m -728.98053,-6128.7371 62.5514,0 120.9738,-305.6666 c -4.1151,31.2649 -7.6648,67.8499 -7.6648,102.0949 l 0,203.5717 51.9328,0 0,-383.579 -62.5512,0 -122.1625,306.859 c 4.7243,-31.2694 8.8701,-68.4503 8.8701,-103.2826 l 0,-203.5764 -51.9496,0 0,383.579"
             style="fill:#1e64c8;fill-opacity:1;fill-rule:nonzero;stroke:none"
             id="path3055"
             inkscape:export-filename="C:\Users\lusterck\Documents\UGentNLP_website\img\nlp_logo.png"
             inkscape:export-xdpi="120"
             inkscape:export-ydpi="120" />
          <path
             inkscape:connector-curvature="0"
             d="m -451.48645,-6128.7371 220.1114,0 0,-46.047 -83.2151,0 0,-337.532 -54.2728,0 0,337.532 -82.6235,0 0,46.047"
             style="fill:#1e64c8;fill-opacity:1;fill-rule:nonzero;stroke:none"
             id="path3057"
             inkscape:export-filename="C:\Users\lusterck\Documents\UGentNLP_website\img\nlp_logo.png"
             inkscape:export-xdpi="120"
             inkscape:export-ydpi="120" />
          <path
             inkscape:connector-curvature="0"
             d="m -1111.904,-5683.6595 54.2588,0 0,352.178 -54.2588,0 0,-352.178 z"
             style="fill:#1e64c8;fill-opacity:1;fill-rule:nonzero;stroke:none"
             id="path3005"
             inkscape:export-filename="C:\Users\lusterck\Documents\UGentNLP_website\img\nlp_logo.png"
             inkscape:export-xdpi="120"
             inkscape:export-ydpi="120" />
          <path
             inkscape:connector-curvature="0"
             d="m -1220.4019,-5683.6595 54.2584,0 0,352.178 -54.2584,0 0,-352.178 z"
             style="fill:#1e64c8;fill-opacity:1;fill-rule:nonzero;stroke:none"
             id="path3007"
             inkscape:export-filename="C:\Users\lusterck\Documents\UGentNLP_website\img\nlp_logo.png"
             inkscape:export-xdpi="120"
             inkscape:export-ydpi="120" />
          <path
             inkscape:connector-curvature="0"
             d="m -1328.9045,-5683.6595 54.2589,0 0,352.178 -54.2589,0 0,-352.178 z"
             style="fill:#1e64c8;fill-opacity:1;fill-rule:nonzero;stroke:none"
             id="path3009"
             inkscape:export-filename="C:\Users\lusterck\Documents\UGentNLP_website\img\nlp_logo.png"
             inkscape:export-xdpi="120"
             inkscape:export-ydpi="120" />
          <path
             inkscape:connector-curvature="0"
             d="m -1437.4033,-5683.6595 54.2591,0 0,352.178 -54.2591,0 0,-352.178 z"
             style="fill:#1e64c8;fill-opacity:1;fill-rule:nonzero;stroke:none"
             id="path3011"
             inkscape:export-filename="C:\Users\lusterck\Documents\UGentNLP_website\img\nlp_logo.png"
             inkscape:export-xdpi="120"
             inkscape:export-ydpi="120" />
          <path
             inkscape:connector-curvature="0"
             d="m -1003.4015,-5683.6595 54.25817,0 0,352.178 -54.25817,0 0,-352.178 z"
             style="fill:#1e64c8;fill-opacity:1;fill-rule:nonzero;stroke:none"
             id="path3013"
             inkscape:export-filename="C:\Users\lusterck\Documents\UGentNLP_website\img\nlp_logo.png"
             inkscape:export-xdpi="120"
             inkscape:export-ydpi="120" />
          <path
             inkscape:connector-curvature="0"
             d="m -894.90333,-5683.6595 54.2588,0 0,352.178 -54.2588,0 0,-352.178 z"
             style="fill:#1e64c8;fill-opacity:1;fill-rule:nonzero;stroke:none"
             id="path3015"
             inkscape:export-filename="C:\Users\lusterck\Documents\UGentNLP_website\img\nlp_logo.png"
             inkscape:export-xdpi="120"
             inkscape:export-ydpi="120" />
          <path
             inkscape:connector-curvature="0"
             d="m -786.40503,-5683.6595 54.2584,0 0,352.178 -54.2584,0 0,-352.178 z"
             style="fill:#1e64c8;fill-opacity:1;fill-rule:nonzero;stroke:none"
             id="path3017"
             inkscape:export-filename="C:\Users\lusterck\Documents\UGentNLP_website\img\nlp_logo.png"
             inkscape:export-xdpi="120"
             inkscape:export-ydpi="120" />
          <path
             inkscape:connector-curvature="0"
             d="m -1492.9552,-5792.1923 816.35777,0 0,54.292 -816.35777,0 0,-54.292 z"
             style="fill:#1e64c8;fill-opacity:1;fill-rule:nonzero;stroke:none"
             id="path3019"
             inkscape:export-filename="C:\Users\lusterck\Documents\UGentNLP_website\img\nlp_logo.png"
             inkscape:export-xdpi="120"
             inkscape:export-ydpi="120" />
          <path
             inkscape:connector-curvature="0"
             d="m -732.14503,-5277.2209 -705.25827,0 -54.2423,54.2378 813.74287,0 -54.2423,-54.2378"
             style="fill:#1e64c8;fill-opacity:1;fill-rule:nonzero;stroke:none"
             id="path3021"
             inkscape:export-filename="C:\Users\lusterck\Documents\UGentNLP_website\img\nlp_logo.png"
             inkscape:export-xdpi="120"
             inkscape:export-ydpi="120" />
          <path
             inkscape:connector-curvature="0"
             d="m -1547.1929,-5900.6955 924.84267,0 0,54.293 -924.84267,0 0,-54.293 z"
             style="fill:#1e64c8;fill-opacity:1;fill-rule:nonzero;stroke:none"
             id="path3023"
             inkscape:export-filename="C:\Users\lusterck\Documents\UGentNLP_website\img\nlp_logo.png"
             inkscape:export-xdpi="120"
             inkscape:export-ydpi="120" />
          <path
             inkscape:connector-curvature="0"
             d="m -622.35473,-5135.2309 -462.42577,163.7805 -462.4124,-163.7805 0,-57.6051 462.4124,163.7456 462.42577,-163.7456 0,57.6051"
             style="fill:#1e64c8;fill-opacity:1;fill-rule:nonzero;stroke:none"
             id="path3025"
             inkscape:export-filename="C:\Users\lusterck\Documents\UGentNLP_website\img\nlp_logo.png"
             inkscape:export-xdpi="120"
             inkscape:export-ydpi="120" />
          <path
             id="path3756"
             style="fill:#6f71b9;fill-opacity:1;fill-rule:nonzero;stroke:none"
             d="m -1547.1938,-6586.626 62.5996,0 120.9352,-305.7008 c -4.1323,31.2647 -7.6996,67.8841 -7.6996,102.1246 l 0,203.5762 51.9412,0 0,-383.6132 -62.5557,0 -122.1539,306.8931 c 4.7421,-31.2687 8.8751,-68.4851 8.8751,-103.3168 l 0,-203.5763 -51.9419,0 0,383.6132"
             inkscape:connector-curvature="0"
             inkscape:export-filename="C:\Users\lusterck\Documents\UGentNLP_website\img\nlp_logo.png"
             inkscape:export-xdpi="120"
             inkscape:export-ydpi="120" />
          <path
             id="path3738"
             style="fill:#6f71b9;fill-opacity:1;fill-rule:nonzero;stroke:none"
             d="m -1218.1038,-6586.626 54.2734,0 0,-337.5622 119.2039,0 0,-46.051 -173.4773,0 0,383.6132"
             inkscape:connector-curvature="0"
             inkscape:export-filename="C:\Users\lusterck\Documents\UGentNLP_website\img\nlp_logo.png"
             inkscape:export-xdpi="120"
             inkscape:export-ydpi="120" />
          <path
             id="path3784"
             style="fill:#6f71b9;fill-opacity:1;fill-rule:nonzero;stroke:none"
             d="m -923.31123,-6633.6089 0,-152.8489 31.8871,0 c 42.4575,0 65.5133,15.3781 65.5133,76.7204 0,61.3465 -23.0558,76.1285 -65.5133,76.1285 l -31.8871,0 z m -54.2906,46.0511 92.0499,0 c 72.6051,0 115.7153,-30.6734 115.7153,-122.1796 0,-89.1266 -44.894,-122.179 -115.7153,-122.179 l -37.7593,0 0,-139.2546 -54.2906,0 0,383.6132"
             inkscape:connector-curvature="0"
             inkscape:export-filename="C:\Users\lusterck\Documents\UGentNLP_website\img\nlp_logo.png"
             inkscape:export-xdpi="120"
             inkscape:export-ydpi="120" />
        </g>
      </g>
    </g>
  </g>
</svg>
